<svg width="24" height="24" viewBox="0 0 24 24" fill="none" xmlns="http://www.w3.org/2000/svg">
<path d="M21.3402 9.32013L7.34025 2.32013C6.78774 2.04514 6.16386 1.94724 5.55368 2.03978C4.9435 2.13232 4.37671 2.4108 3.93058 2.83724C3.48445 3.26369 3.1807 3.81735 3.06074 4.42274C2.94078 5.02813 3.01045 5.65578 3.26025 6.22013L5.66025 11.5901C5.7147 11.72 5.74275 11.8593 5.74275 12.0001C5.74275 12.1409 5.7147 12.2803 5.66025 12.4101L3.26025 17.7801C3.05695 18.2368 2.971 18.7371 3.01022 19.2355C3.04945 19.7339 3.21259 20.2145 3.48483 20.6338C3.75707 21.0531 4.12977 21.3977 4.56907 21.6363C5.00837 21.875 5.50033 22 6.00025 22.0001C6.46848 21.9955 6.92974 21.8861 7.35025 21.6801L21.3502 14.6801C21.8468 14.4303 22.2643 14.0474 22.5559 13.5742C22.8476 13.101 23.0021 12.556 23.0021 12.0001C23.0021 11.4442 22.8476 10.8993 22.5559 10.4261C22.2643 9.95282 21.8468 9.56994 21.3502 9.32013H21.3402ZM20.4502 12.8901L6.45025 19.8901C6.26641 19.9784 6.05998 20.0084 5.85863 19.976C5.65729 19.9436 5.47066 19.8504 5.32376 19.709C5.17686 19.5675 5.07673 19.3845 5.03678 19.1846C4.99683 18.9846 5.01897 18.7772 5.10025 18.5901L7.49025 13.2201C7.52119 13.1484 7.5479 13.075 7.57025 13.0001H14.4602C14.7255 13.0001 14.9798 12.8948 15.1674 12.7072C15.3549 12.5197 15.4602 12.2653 15.4602 12.0001C15.4602 11.7349 15.3549 11.4806 15.1674 11.293C14.9798 11.1055 14.7255 11.0001 14.4602 11.0001H7.57025C7.5479 10.9253 7.52119 10.8518 7.49025 10.7801L5.10025 5.41013C5.01897 5.22309 4.99683 5.01568 5.03678 4.8157C5.07673 4.61572 5.17686 4.43273 5.32376 4.29128C5.47066 4.14982 5.65729 4.05666 5.85863 4.02428C6.05998 3.9919 6.26641 4.02186 6.45025 4.11013L20.4502 11.1101C20.614 11.194 20.7515 11.3215 20.8475 11.4786C20.9435 11.6356 20.9943 11.8161 20.9943 12.0001C20.9943 12.1842 20.9435 12.3647 20.8475 12.5217C20.7515 12.6787 20.614 12.8062 20.4502 12.8901Z" fill="white"/>
</svg>
