<svg width="32" height="32" viewBox="0 0 32 32" fill="none" xmlns="http://www.w3.org/2000/svg">
<rect width="32" height="32" rx="16" fill="black"/>
<path d="M25.3393 13.3201L11.3393 6.32013C10.7868 6.04514 10.1629 5.94724 9.55271 6.03978C8.94252 6.13232 8.37573 6.4108 7.9296 6.83724C7.48347 7.26369 7.17972 7.81735 7.05976 8.42274C6.9398 9.02813 7.00947 9.65578 7.25927 10.2201L9.65927 15.5901C9.71373 15.72 9.74177 15.8593 9.74177 16.0001C9.74177 16.1409 9.71373 16.2803 9.65927 16.4101L7.25927 21.7801C7.05597 22.2368 6.97003 22.7371 7.00925 23.2355C7.04847 23.7339 7.21161 24.2145 7.48385 24.6338C7.75609 25.0531 8.1288 25.3977 8.56809 25.6363C9.00739 25.875 9.49935 26 9.99927 26.0001C10.4675 25.9955 10.9288 25.8861 11.3493 25.6801L25.3493 18.6801C25.8459 18.4303 26.2633 18.0474 26.555 17.5742C26.8466 17.101 27.0011 16.556 27.0011 16.0001C27.0011 15.4442 26.8466 14.8993 26.555 14.4261C26.2633 13.9528 25.8459 13.5699 25.3493 13.3201H25.3393ZM24.4493 16.8901L10.4493 23.8901C10.2654 23.9784 10.059 24.0084 9.85766 23.976C9.65631 23.9436 9.46968 23.8504 9.32278 23.709C9.17589 23.5675 9.07575 23.3845 9.0358 23.1846C8.99585 22.9846 9.018 22.7772 9.09927 22.5901L11.4893 17.2201C11.5202 17.1484 11.5469 17.075 11.5693 17.0001H18.4593C18.7245 17.0001 18.9788 16.8948 19.1664 16.7072C19.3539 16.5197 19.4593 16.2653 19.4593 16.0001C19.4593 15.7349 19.3539 15.4806 19.1664 15.293C18.9788 15.1055 18.7245 15.0001 18.4593 15.0001H11.5693C11.5469 14.9253 11.5202 14.8518 11.4893 14.7801L9.09927 9.41013C9.018 9.22309 8.99585 9.01568 9.0358 8.8157C9.07575 8.61572 9.17589 8.43273 9.32278 8.29128C9.46968 8.14982 9.65631 8.05666 9.85766 8.02428C10.059 7.9919 10.2654 8.02186 10.4493 8.11013L24.4493 15.1101C24.6131 15.194 24.7505 15.3215 24.8465 15.4786C24.9425 15.6356 24.9933 15.8161 24.9933 16.0001C24.9933 16.1842 24.9425 16.3647 24.8465 16.5217C24.7505 16.6787 24.6131 16.8062 24.4493 16.8901Z" fill="white"/>
</svg>
